<svg width="24" height="22" viewBox="0 0 24 22" fill="none" xmlns="http://www.w3.org/2000/svg">
<path d="M12 15.4478C11.329 15.4478 10.7666 16.0102 10.7666 16.6811C10.7666 17.3521 11.329 17.9145 12 17.9145C12.6463 17.9145 13.2334 17.3521 13.2038 16.7108C13.2334 16.0052 12.6759 15.4478 12 15.4478Z" fill="#D64A4A"/>
<path d="M23.416 19.8188C24.1906 18.4818 24.1955 16.8883 23.4259 15.5562L15.6999 2.17638C14.9352 0.829512 13.5538 0.0302734 12.0046 0.0302734C10.4555 0.0302734 9.0741 0.834445 8.30939 2.17144L0.573551 15.5661C-0.196086 16.913 -0.191152 18.5164 0.588352 19.8534C1.35799 21.1756 2.73446 21.9699 4.27373 21.9699H19.7059C21.2502 21.9699 22.6365 21.1657 23.416 19.8188ZM21.7386 18.8518C21.3094 19.5919 20.5496 20.031 19.701 20.031H4.2688C3.43009 20.031 2.67525 19.6017 2.2559 18.8765C1.83161 18.1414 1.82668 17.2632 2.25097 16.5232L9.98681 3.13349C10.4062 2.39839 11.1561 1.96423 12.0046 1.96423C12.8483 1.96423 13.6031 2.40332 14.0225 3.13842L21.7534 16.5281C22.1678 17.2484 22.1629 18.1167 21.7386 18.8518Z" fill="#D64A4A"/>
<path d="M11.6934 6.78922C11.1063 6.95696 10.7412 7.48978 10.7412 8.13608C10.7708 8.52583 10.7955 8.92052 10.8251 9.31027C10.909 10.7953 10.9928 12.2507 11.0767 13.7357C11.1063 14.2389 11.496 14.604 11.9993 14.604C12.5025 14.604 12.8972 14.2142 12.9218 13.7061C12.9218 13.4002 12.9218 13.119 12.9515 12.8082C13.0057 11.856 13.0649 10.9038 13.1192 9.95163C13.1488 9.33494 13.2031 8.71824 13.2327 8.10154C13.2327 7.87953 13.2031 7.68219 13.1192 7.48485C12.8676 6.93229 12.2805 6.65108 11.6934 6.78922Z" fill="#D64A4A"/>
</svg>
