<svg width="16" height="16" viewBox="0 0 16 16" fill="none" xmlns="http://www.w3.org/2000/svg">
<path d="M2.72895 16H13.271C15.0961 16 16 15.0961 16 13.3058V2.69419C16 0.903857 15.0961 0 13.271 0H2.72895C0.912548 0 0 0.895166 0 2.69419V13.3058C0 15.1048 0.912548 16 2.72895 16ZM6.81369 12.4454C6.5182 12.4454 6.28354 12.315 6.0402 12.0196L3.53721 8.92558C3.40684 8.76046 3.32863 8.55187 3.32863 8.36067C3.32863 7.9522 3.6415 7.63933 4.03259 7.63933C4.28463 7.63933 4.49321 7.73493 4.70179 8.00434L6.77892 10.6898L10.8115 4.2151C10.9853 3.94568 11.2113 3.81532 11.4373 3.81532C11.8197 3.81532 12.1847 4.06735 12.1847 4.48452C12.1847 4.67572 12.0804 4.8843 11.9674 5.05812L7.54373 12.0196C7.36122 12.3064 7.11787 12.4454 6.81369 12.4454Z" fill="#50BD79"/>
</svg>
