<svg width="16" height="16" viewBox="0 0 16 16" fill="none" xmlns="http://www.w3.org/2000/svg">
<path d="M8.00005 0C3.58882 0 0 3.58882 0 8.00005C0 12.4113 3.58882 16.0001 8.00005 16.0001C12.4113 16.0001 16.0001 12.4113 16.0001 8.00005C16.0001 3.58882 12.4112 0 8.00005 0ZM8.00005 14.6286C4.34512 14.6286 1.37145 11.655 1.37145 8.00005C1.37145 4.34512 4.34512 1.37145 8.00005 1.37145C11.655 1.37145 14.6286 4.34512 14.6286 8.00005C14.6286 11.655 11.6549 14.6286 8.00005 14.6286Z" fill="black"/>
<path d="M11.0961 4.90475C10.8283 4.63689 10.3939 4.63689 10.1265 4.90475L8.00061 7.03094L5.8747 4.90475C5.60684 4.63689 5.17295 4.63689 4.90509 4.90475C4.63723 5.17262 4.63723 5.6065 4.90509 5.87436L7.031 8.00045L4.905 10.1266C4.63714 10.3945 4.63714 10.8284 4.905 11.0962C5.03888 11.2301 5.21437 11.2972 5.38985 11.2972C5.56533 11.2972 5.741 11.2302 5.8747 11.0962L8.00061 8.97016L10.1265 11.0962C10.2604 11.2301 10.4359 11.2972 10.6114 11.2972C10.7868 11.2972 10.9622 11.2302 11.0962 11.0962C11.3641 10.8284 11.3641 10.3945 11.0962 10.1266L8.97022 8.00055L11.0961 5.87446C11.364 5.60659 11.364 5.17262 11.0961 4.90475Z" fill="black"/>
</svg>
