<svg width="38" height="38" viewBox="0 0 38 38" fill="none" xmlns="http://www.w3.org/2000/svg">
<g clip-path="url(#clip0)">
<path d="M28.5651 29.8898V29.8572H28.5645V29.8898H28.5651Z" fill="#50BD79"/>
<path d="M9.4353 29.8571H10.7809L10.1783 19.9093C10.1557 19.5345 10.4411 19.2123 10.8158 19.1896C11.1906 19.167 11.5128 19.4524 11.5355 19.8271L12.1401 29.8571H28.5676L29.789 17.6428H8.21387L9.4353 29.8571Z" fill="#50BD79"/>
<path d="M29.1283 10.8572H8.87158L9.25701 16.2858H28.7429L29.1283 10.8572Z" fill="#50BD79"/>
<path d="M29.781 4.75001H8.21868C7.90015 4.74852 7.624 4.97006 7.55639 5.28133L6.80182 8.6742C6.75716 8.8751 6.80609 9.08543 6.93486 9.24598C7.06362 9.40654 7.25829 9.49998 7.46411 9.50002H30.5355C30.7415 9.50019 30.9363 9.40684 31.0653 9.24625C31.1942 9.08566 31.2432 8.87522 31.1985 8.6742L30.4439 5.28133C30.3763 4.96981 30.0997 4.7482 29.781 4.75001Z" fill="#50BD79"/>
<path d="M27.2785 36.7379L27.6762 31.2144H13.2999L13.5714 35.5837C13.5942 35.9577 13.3095 36.2794 12.9356 36.3023C12.922 36.3023 12.9077 36.3023 12.8935 36.3023C12.5343 36.303 12.2368 36.0236 12.2149 35.6651L11.9428 31.2144H10.3237L10.7193 36.7373C10.7708 37.447 11.3602 37.9973 12.0717 38.0001H25.9282C26.6387 37.9963 27.2268 37.4466 27.2785 36.7379Z" fill="#50BD79"/>
<path d="M27.1428 1.79002L11.0769 0.00401532C10.7117 -0.0392907 10.3794 0.218415 10.3304 0.582837L9.94434 3.3928H27.9794L27.7229 2.28944C27.6509 2.01936 27.4206 1.8211 27.1428 1.79002Z" fill="#50BD79"/>
</g>
<defs>
<clipPath id="clip0">
<rect width="38" height="38" fill="white"/>
</clipPath>
</defs>
</svg>
