<svg width="176" height="201" viewBox="0 0 176 201" fill="none" xmlns="http://www.w3.org/2000/svg">
<path d="M174.419 67.7798H168.177V83.8014H174.419V67.7798Z" fill="white"/>
<path d="M174.428 85.3755H168.177L166.605 83.8102V67.7798L168.177 66.2146H174.428L176 67.7798V83.8102L174.428 85.3755ZM169.757 82.2362H172.848V69.3538H169.757V82.2362Z" fill="black"/>
<path d="M156.971 95.5054C156.971 100.781 154.867 105.84 151.121 109.57C147.375 113.3 142.295 115.396 136.998 115.396C131.7 115.396 126.62 113.3 122.874 109.57C119.129 105.84 117.024 100.781 117.024 95.5054H107.567C107.5 99.3964 108.211 103.262 109.659 106.876C111.108 110.491 113.264 113.781 116.003 116.557C118.743 119.332 122.009 121.537 125.613 123.042C129.217 124.546 133.086 125.321 136.993 125.321C140.901 125.321 144.77 124.546 148.374 123.042C151.977 121.537 155.244 119.332 157.983 116.557C160.722 113.781 162.879 110.491 164.328 106.876C165.776 103.262 166.487 99.3964 166.419 95.5054H156.971Z" fill="white"/>
<path d="M136.998 126.379C128.772 126.379 120.883 123.127 115.063 117.339C109.244 111.55 105.97 103.697 105.96 95.5054L107.532 93.9402H116.989L118.561 95.5054C118.507 97.9451 118.943 100.371 119.844 102.641C120.744 104.91 122.091 106.978 123.804 108.722C125.518 110.467 127.564 111.853 129.823 112.799C132.082 113.745 134.508 114.232 136.958 114.232C139.409 114.232 141.834 113.745 144.093 112.799C146.352 111.853 148.398 110.467 150.112 108.722C151.825 106.978 153.172 104.91 154.072 102.641C154.973 100.371 155.409 97.9451 155.355 95.5054L156.936 93.9402H166.384L167.965 95.5054C167.955 103.685 164.691 111.527 158.887 117.314C153.082 123.101 145.211 126.361 136.998 126.379ZM109.192 97.0794C109.552 104.184 112.639 110.88 117.816 115.782C122.993 120.684 129.863 123.418 137.007 123.418C144.15 123.418 151.021 120.684 156.197 115.782C161.374 110.88 164.462 104.184 164.821 97.0794H158.508C158.096 102.476 155.654 107.518 151.668 111.197C147.683 114.876 142.45 116.92 137.015 116.92C131.581 116.92 126.348 114.876 122.362 111.197C118.377 107.518 115.934 102.476 115.523 97.0794H109.192Z" fill="black"/>
<path d="M152.781 107.905L150.529 110.101L157.144 116.83L159.397 114.634L152.781 107.905Z" fill="black"/>
<path d="M168.133 67.7798H161.89V83.8014H168.133V67.7798Z" fill="white"/>
<path d="M168.132 85.3755H161.89L160.309 83.8102V67.7798L161.89 66.2146H168.132L169.713 67.7798V83.8102L168.132 85.3755ZM163.461 82.2362H166.552V69.3538H163.461V82.2362Z" fill="black"/>
<path d="M163.947 46.5877L157.695 45.5413L155.603 67.8062L154.614 67.815L152.512 45.5413L146.269 46.5877L148.371 67.8414V85.1732H161.89V67.7798H161.845L163.947 46.5877Z" fill="white"/>
<path d="M161.89 86.7382H148.344L146.764 85.173V67.9203L144.671 46.737L145.978 45.0398L152.247 43.967L154.084 45.3652L155.108 56.2778L156.133 45.4267L157.96 43.967L164.238 45.0398L165.545 46.737L163.47 67.7532V85.173L161.89 86.7382ZM149.943 83.599H160.309V67.7708H160.415L160.274 67.6213L162.234 47.8801L159.108 47.3613L157.174 67.9555L155.612 69.38H154.631L153.051 67.9555L151.108 47.3613L147.991 47.8801L149.943 67.7093V83.599Z" fill="black"/>
<path d="M145.219 75.2629L148.371 70.022H163.929V77.0831H153.439L162.658 83.8101H174.419V89.7017L171.267 99.0667H150.472L145.219 89.983V75.2629Z" fill="white"/>
<path d="M171.302 100.632H150.472L149.104 99.8493L143.806 90.7657L143.594 89.9743V75.2629L143.823 74.4539L146.976 69.1779L148.327 68.4128H163.885L165.457 69.9781V77.0128L163.885 78.578H158.216L163.135 82.1657H174.384L175.956 83.7398V89.6929L175.876 90.1941L172.724 99.5591L171.302 100.632ZM151.417 97.4927H170.172L172.883 89.4467V85.3753H162.658L161.731 85.0764L152.512 78.3494L153.439 75.5091H162.349V71.5961H149.227L146.755 75.6938V89.561L151.417 97.4927Z" fill="black"/>
<path d="M135.073 189.999L125.607 199.426H40.4681L31.0023 189.999V10.9917L40.4681 1.57397H125.607L135.073 10.9917V189.999Z" fill="white"/>
<path d="M125.616 201H40.4592L39.3466 200.534L29.8897 191.116L29.4305 190.008V10.9918L29.8897 9.8838L39.3466 0.457258L40.4592 0H125.616L126.729 0.457258L136.185 9.8838L136.653 10.9918V190.008L136.185 191.116L126.729 200.534L125.616 201ZM41.1126 197.852H124.998L133.528 189.358V11.6425L124.998 3.13925H41.1126L32.5828 11.6425V189.358L41.1126 197.852Z" fill="black"/>
<path d="M64.5475 171.727C64.5475 171.727 68.8742 178.885 83.0023 178.885C97.1303 178.885 101.545 171.727 101.545 171.727" fill="white"/>
<path d="M68.8477 25.1227H49.925V10.9917H40.468V48.6803H49.925V34.5493H68.8477V48.6803H78.3047V10.9917H68.8477V25.1227Z" fill="black"/>
<path d="M116.15 10.9917H97.2273L87.7704 20.4095V39.2538L97.2273 48.6803H116.15L125.616 39.2538V20.4095L116.15 10.9917ZM116.15 39.2538H97.2273V20.4095H116.15V39.2538Z" fill="black"/>
<path d="M68.8477 72.2292H49.925V58.0981H40.468V95.7867H49.925V81.6557H68.8477V95.7867H78.3047V58.0981H68.8477V72.2292Z" fill="black"/>
<path d="M97.2273 58.0981L87.7704 67.5247V86.369L97.2273 95.7867H116.15L125.616 86.369V67.5247L116.15 58.0981H97.2273ZM116.15 86.369H97.2273V67.5247H116.15V86.369Z" fill="black"/>
<path d="M97.2273 105.204L87.7704 114.631V133.475L97.2273 142.893H116.15L125.616 133.475V114.631L116.15 105.204H97.2273ZM116.15 133.475H97.2273V114.631H116.15V133.475Z" fill="black"/>
<path d="M49.925 105.204H40.468V142.893H49.925V133.475H68.8742V142.893H78.3047V133.475L73.5806 128.762L78.3047 124.049V114.631L68.8742 105.204H49.925ZM49.925 114.631H68.8742V124.049H49.925V114.631Z" fill="black"/>
<path d="M31.0023 155.556C25.705 155.556 20.6247 153.46 16.8789 149.73C13.1331 146 11.0288 140.94 11.0288 135.665C11.0288 130.39 13.1331 125.33 16.8789 121.6C20.6247 117.87 25.705 115.774 31.0023 115.774V106.4C23.2863 106.534 15.9315 109.679 10.5221 115.161C5.11273 120.642 2.08159 128.019 2.08159 135.704C2.08159 143.39 5.11273 150.767 10.5221 156.248C15.9315 161.73 23.2863 164.875 31.0023 165.009V155.556Z" fill="white"/>
<path d="M31.0022 166.538C22.7799 166.538 14.8944 163.286 9.08033 157.496C3.26629 151.706 0 143.853 0 135.665C0 127.477 3.26629 119.624 9.08033 113.834C14.8944 108.044 22.7799 104.791 31.0022 104.791L32.5828 106.4V115.809L31.0022 117.383C26.1927 117.488 21.6157 119.464 18.2515 122.889C14.8873 126.313 13.0035 130.914 13.0035 135.704C13.0035 140.495 14.8873 145.095 18.2515 148.52C21.6157 151.944 26.1927 153.92 31.0022 154.025L32.5828 155.591V165.008L31.0022 166.538ZM29.4216 107.974C22.2872 108.332 15.5637 111.407 10.6413 116.562C5.71888 121.718 2.97391 128.56 2.97391 135.674C2.97391 142.787 5.71888 149.629 10.6413 154.785C15.5637 159.94 22.2872 163.015 29.4216 163.373V157.086C24.0031 156.676 18.9398 154.243 15.2456 150.275C11.5513 146.306 9.49871 141.094 9.49871 135.682C9.49871 130.271 11.5513 125.059 15.2456 121.09C18.9398 117.121 24.0031 114.689 29.4216 114.279V107.974Z" fill="black"/>
<path d="M40.4592 150.271H24.3709V156.488H40.4592V150.271Z" fill="white"/>
<path d="M40.4592 158.053H24.3709L22.7992 156.523V150.306L24.3709 148.732H40.4592L42.0398 150.306V156.523L40.4592 158.053ZM25.9515 154.914H38.8521V151.836H25.9515V154.914Z" fill="black"/>
<path d="M40.4592 156.532H24.3709V162.749H40.4592V156.532Z" fill="white"/>
<path d="M40.4592 164.323H24.3709L22.7992 162.749V156.523L24.3709 154.949H40.4592L42.0398 156.523V162.74L40.4592 164.323ZM25.9515 161.183H38.8521V158.106H25.9515V161.183Z" fill="black"/>
<path d="M37.3069 162.801H24.3709V169.018H37.3069V162.801Z" fill="white"/>
<path d="M37.3069 170.593H24.3709L22.7992 169.027V162.81L24.3709 161.236H37.3069L38.8521 162.802V169.019L37.3069 170.593ZM25.9515 167.453H35.7351V164.376H25.9515V167.453Z" fill="black"/>
<path d="M24.3709 150.262V135.568H28.4151L31.0023 138.716V150.262H24.3709Z" fill="white"/>
<path d="M31.0023 151.836H24.3709L22.7992 150.271V135.568L24.3709 133.994H28.4151L29.6336 134.574L32.2208 137.723L32.5828 138.725V150.271L31.0023 151.836ZM25.9515 148.697H29.4305V139.279L27.6645 137.142H25.9515V148.697Z" fill="black"/>
<path d="M53.5982 160.99C53.5982 161.3 53.506 161.602 53.3333 161.86C53.1606 162.117 52.9151 162.318 52.6279 162.436C52.3407 162.555 52.0247 162.586 51.7198 162.525C51.4149 162.465 51.1348 162.316 50.915 162.097C50.6952 161.878 50.5455 161.599 50.4849 161.295C50.4242 160.992 50.4554 160.677 50.5743 160.391C50.6933 160.105 50.8947 159.861 51.1532 159.689C51.4117 159.517 51.7156 159.425 52.0264 159.425C52.4433 159.425 52.8431 159.59 53.1378 159.883C53.4326 160.177 53.5982 160.575 53.5982 160.99Z" fill="white"/>
<path d="M111.382 160.99C111.382 161.3 111.29 161.602 111.117 161.86C110.944 162.117 110.699 162.318 110.412 162.436C110.124 162.555 109.808 162.586 109.504 162.525C109.199 162.465 108.919 162.316 108.699 162.097C108.479 161.878 108.329 161.599 108.269 161.295C108.208 160.992 108.239 160.677 108.358 160.391C108.477 160.105 108.679 159.861 108.937 159.689C109.195 159.517 109.499 159.425 109.81 159.425C110.227 159.425 110.627 159.59 110.922 159.883C111.216 160.177 111.382 160.575 111.382 160.99Z" fill="white"/>
<path d="M116.627 157.042C116.629 157.642 116.451 158.229 116.118 158.729C115.784 159.229 115.309 159.62 114.752 159.851C114.196 160.082 113.583 160.143 112.992 160.027C112.4 159.911 111.856 159.623 111.43 159.199C111.003 158.775 110.712 158.234 110.593 157.645C110.475 157.057 110.535 156.446 110.765 155.891C110.996 155.337 111.386 154.862 111.887 154.529C112.388 154.195 112.978 154.017 113.581 154.017C113.98 154.015 114.376 154.093 114.746 154.244C115.115 154.396 115.451 154.618 115.734 154.899C116.017 155.18 116.242 155.514 116.395 155.882C116.548 156.249 116.627 156.644 116.627 157.042Z" fill="white"/>
<path d="M57.6336 179.131H50.0045C49.0022 179.131 48.0409 178.734 47.3321 178.028C46.6234 177.323 46.2252 176.365 46.2252 175.367C46.2252 174.369 46.6234 173.412 47.3321 172.706C48.0409 172 49.0022 171.604 50.0045 171.604H57.6336C58.6359 171.604 59.5972 172 60.3059 172.706C61.0147 173.412 61.4129 174.369 61.4129 175.367C61.4129 176.365 61.0147 177.323 60.3059 178.028C59.5972 178.734 58.6359 179.131 57.6336 179.131Z" fill="#4CF2A2"/>
<path d="M120.733 160.533H117.581C117.581 158.998 116.968 157.526 115.879 156.441C114.789 155.356 113.311 154.747 111.77 154.747C110.229 154.747 108.752 155.356 107.662 156.441C106.572 157.526 105.96 158.998 105.96 160.533H102.808C102.808 158.166 103.752 155.895 105.433 154.222C107.114 152.548 109.393 151.607 111.77 151.607C114.147 151.607 116.427 152.548 118.108 154.222C119.789 155.895 120.733 158.166 120.733 160.533Z" fill="black"/>
<path d="M61.1833 159.011C61.1833 160.464 60.7502 161.883 59.9391 163.09C59.1279 164.297 57.9751 165.237 56.6269 165.791C55.2787 166.345 53.7958 166.487 52.366 166.201C50.9363 165.914 49.6242 165.211 48.5961 164.181C47.568 163.151 46.8701 161.84 46.591 160.415C46.3118 158.989 46.464 157.514 47.0281 156.174C47.5923 154.835 48.5431 153.693 49.7599 152.892C50.9767 152.092 52.4048 151.669 53.8632 151.678C54.8303 151.678 55.7879 151.867 56.6814 152.236C57.5748 152.604 58.3867 153.145 59.0705 153.826C59.7543 154.507 60.2968 155.315 60.6669 156.205C61.0369 157.095 61.2274 158.048 61.2274 159.011" fill="black"/>
<path d="M53.5982 160.796C53.5982 161.106 53.506 161.409 53.3333 161.666C53.1606 161.923 52.9151 162.124 52.6279 162.243C52.3407 162.361 52.0247 162.392 51.7198 162.332C51.4149 162.271 51.1348 162.122 50.915 161.903C50.6952 161.684 50.5455 161.405 50.4849 161.102C50.4242 160.798 50.4554 160.483 50.5743 160.197C50.6933 159.911 50.8947 159.667 51.1532 159.495C51.4117 159.323 51.7156 159.231 52.0264 159.231C52.4433 159.231 52.8431 159.396 53.1378 159.69C53.4326 159.983 53.5982 160.381 53.5982 160.796Z" fill="white"/>
<path d="M58.8433 156.857C58.8433 157.457 58.6646 158.044 58.3299 158.542C57.9951 159.041 57.5193 159.43 56.9627 159.66C56.406 159.889 55.7935 159.949 55.2026 159.832C54.6117 159.715 54.0688 159.426 53.6428 159.002C53.2168 158.578 52.9266 158.037 52.8091 157.449C52.6915 156.86 52.7519 156.25 52.9824 155.696C53.213 155.142 53.6035 154.668 54.1044 154.335C54.6054 154.001 55.1944 153.823 55.7969 153.823C56.1973 153.822 56.5939 153.9 56.9641 154.052C57.3342 154.204 57.6705 154.427 57.9536 154.709C58.2367 154.991 58.4611 155.326 58.6137 155.695C58.7664 156.063 58.8444 156.458 58.8433 156.857Z" fill="white"/>
<path d="M57.6336 178.946H50.0045C49.0022 178.946 48.0409 178.55 47.3321 177.844C46.6234 177.138 46.2252 176.181 46.2252 175.183C46.2252 174.184 46.6234 173.227 47.3321 172.521C48.0409 171.815 49.0022 171.419 50.0045 171.419H57.6336C58.6359 171.419 59.5972 171.815 60.3059 172.521C61.0147 173.227 61.4129 174.184 61.4129 175.183C61.4129 176.181 61.0147 177.138 60.3059 177.844C59.5972 178.55 58.6359 178.946 57.6336 178.946Z" fill="#4CF2A2"/>
<path d="M115.417 178.946H107.788C106.786 178.946 105.825 178.55 105.116 177.844C104.407 177.138 104.009 176.181 104.009 175.183C104.009 174.184 104.407 173.227 105.116 172.521C105.825 171.815 106.786 171.419 107.788 171.419H115.417C116.42 171.419 117.381 171.815 118.09 172.521C118.798 173.227 119.196 174.184 119.196 175.183C119.196 176.181 118.798 177.138 118.09 177.844C117.381 178.55 116.42 178.946 115.417 178.946Z" fill="#4CF2A2"/>
<path d="M83.3996 185.251C82.0475 185.25 80.7089 184.983 79.4602 184.467C78.2115 183.951 77.0772 183.195 76.1219 182.242C75.1667 181.289 74.4093 180.158 73.893 178.913C73.3766 177.669 73.1115 176.335 73.1126 174.989H76.2649C76.33 176.829 77.1097 178.572 78.4397 179.851C79.7698 181.13 81.5464 181.844 83.3952 181.844C85.244 181.844 87.0205 181.13 88.3506 179.851C89.6807 178.572 90.4604 176.829 90.5254 174.989H93.6777C93.6801 176.335 93.416 177.668 92.9006 178.913C92.3852 180.157 91.6287 181.288 90.6741 182.241C89.7196 183.194 88.5858 183.95 87.3376 184.467C86.0894 184.983 84.7512 185.25 83.3996 185.251Z" fill="black"/>
</svg>
