<svg width="121" height="17" viewBox="0 0 121 17" fill="none" xmlns="http://www.w3.org/2000/svg">
<path d="M12.6696 6.37442H4.22473V0H0V17H4.22473V10.6256H12.6696V17H16.8943V0H12.6696V6.37442Z" fill="black"/>
<path d="M33.7887 0H25.3439L21.1191 4.25116V12.7488L25.3439 17H33.7887L38.0134 12.7488V4.25116L33.7887 0ZM33.7887 12.7488H25.3439V4.25116H33.7887V12.7488Z" fill="black"/>
<path d="M53.9606 6.37442H45.5111V0H41.291V17H45.5111V10.6256H53.9606V17H58.1853V0H53.9606V6.37442Z" fill="black"/>
<path d="M66.6578 0L62.4331 4.25116V12.7488L66.6578 17H75.1027L79.3274 12.7488V4.25116L75.0797 0H66.6578ZM75.1027 12.7488H66.6578V4.25116H75.1027V12.7488Z" fill="black"/>
<path d="M108.331 0L104.106 4.25116V12.7488L108.331 17H116.766L120.991 12.7488V4.25116L116.766 0H108.331ZM116.766 12.7488H108.331V4.25116H116.766V12.7488Z" fill="black"/>
<path d="M87.2115 0H82.9868V17H87.2115V12.7488H95.6564V17H99.8811V12.7488L97.771 10.6395L99.8811 8.51619V4.25116L95.6564 0H87.2115ZM87.2115 4.25116H95.6564V8.50231H87.2115V4.25116Z" fill="black"/>
</svg>
