<svg width="26" height="26" viewBox="0 0 26 26" fill="none" xmlns="http://www.w3.org/2000/svg">
<g clip-path="url(#clip0)">
<path d="M22.4915 7.07347L23.9512 6.63756C23.1355 3.90629 21.3353 1.58787 18.8821 0.109375L18.0957 1.4142C20.2235 2.69648 21.7846 4.70635 22.4915 7.07347Z" fill="#E43C3C"/>
<path d="M7.90534 1.41415L7.11899 0.109375C4.6657 1.58787 2.86545 3.90629 2.0498 6.63756L3.50951 7.07347C4.21644 4.70635 5.77755 2.69648 7.90534 1.41415Z" fill="#E43C3C"/>
<path d="M4.62109 9.90234V18.0673C4.62109 18.5585 4.4298 19.0203 4.08251 19.3676C3.44744 20.0027 3.09766 20.8471 3.09766 21.7452V22.9531H9.26804C9.62188 24.6894 11.1607 26 13 26C14.8393 26 16.3781 24.6894 16.732 22.9531H22.9023V21.7452C22.9023 20.847 22.5526 20.0027 21.9175 19.3676C21.5701 19.0203 21.3789 18.5585 21.3789 18.0673V9.90234C21.3789 5.53902 18.0262 1.94462 13.7617 1.55843V0H12.2383V1.55843C7.97382 1.94457 4.62109 5.53896 4.62109 9.90234ZM13 24.4766C12.007 24.4766 11.1603 23.8397 10.8459 22.9526H15.1541C14.8397 23.8397 13.993 24.4766 13 24.4766ZM19.8555 9.90234V18.0673C19.8555 18.9655 20.2052 19.8098 20.8403 20.4449C21.1121 20.7167 21.2883 21.0585 21.3521 21.4297H4.64791C4.71169 21.0585 4.88795 20.7166 5.15973 20.4449C5.79475 19.8098 6.14453 18.9654 6.14453 18.0673V9.90234C6.14453 6.12224 9.21989 3.04688 13 3.04688C16.7801 3.04688 19.8555 6.12224 19.8555 9.90234Z" fill="#E43C3C"/>
</g>
<defs>
<clipPath id="clip0">
<rect width="26" height="26" fill="white"/>
</clipPath>
</defs>
</svg>
