<svg width="35" height="35" viewBox="0 0 35 35" fill="none" xmlns="http://www.w3.org/2000/svg">
<path d="M29.8958 8.02075H25.5208C25.2072 8.02075 24.9288 7.82094 24.8296 7.522L24.3688 6.1395C23.8714 4.64763 22.4817 3.64575 20.9096 3.64575H14.0904C12.5183 3.64575 11.1285 4.64763 10.6327 6.13807L10.1719 7.522C10.0712 7.82094 9.79269 8.02075 9.47919 8.02075H5.10419C2.28956 8.02075 0 10.3104 0 13.1249V26.2499C0 29.0645 2.28956 31.3541 5.10419 31.3541H29.8959C32.7104 31.3541 35 29.0645 35 26.2499V13.1249C35 10.3104 32.7104 8.02075 29.8958 8.02075ZM33.5417 26.2499C33.5417 28.2595 31.9054 29.8957 29.8959 29.8957H5.10419C3.09463 29.8957 1.45838 28.2595 1.45838 26.2499V13.1249C1.45838 11.1154 3.09463 9.47913 5.10419 9.47913H9.47919C10.4213 9.47913 11.2554 8.87832 11.5544 7.98432L12.0167 6.59888C12.3142 5.70494 13.1484 5.10406 14.0904 5.10406H20.9096C21.8517 5.10406 22.6859 5.70487 22.9848 6.60031L23.4456 7.98425C23.7446 8.87818 24.5788 9.47906 25.5208 9.47906H29.8958C31.9054 9.47906 33.5416 11.1153 33.5416 13.1249V26.2499H33.5417Z" fill="#636363"/>
<path d="M17.5 10.9375C12.6744 10.9375 8.75 14.8619 8.75 19.6875C8.75 24.5131 12.6744 28.4375 17.5 28.4375C22.3256 28.4375 26.25 24.5131 26.25 19.6875C26.25 14.8619 22.3256 10.9375 17.5 10.9375ZM17.5 26.9792C13.4794 26.9792 10.2083 23.7081 10.2083 19.6875C10.2083 15.6669 13.4794 12.3958 17.5 12.3958C21.5206 12.3958 24.7917 15.6669 24.7917 19.6875C24.7917 23.7081 21.5206 26.9792 17.5 26.9792Z" fill="#636363"/>
<path d="M17.4993 13.8542C14.2823 13.8542 11.666 16.4705 11.666 19.6875C11.666 20.09 11.9927 20.4167 12.3952 20.4167C12.7977 20.4167 13.1243 20.09 13.1243 19.6875C13.1243 17.2755 15.0873 15.3126 17.4993 15.3126C17.9018 15.3126 18.2285 14.9859 18.2285 14.5834C18.2285 14.1809 17.9018 13.8542 17.4993 13.8542Z" fill="#636363"/>
</svg>
