<svg width="38" height="38" viewBox="0 0 38 38" fill="none" xmlns="http://www.w3.org/2000/svg">
<path d="M18.7291 18.3047C21.2438 18.3047 23.4211 17.4028 25.2006 15.6233C26.9796 13.8441 27.8818 11.6671 27.8818 9.15208C27.8818 6.63793 26.9798 4.46065 25.2003 2.68086C23.4208 0.90193 21.2435 0 18.7291 0C16.2141 0 14.0371 0.90193 12.2579 2.68115C10.4786 4.46036 9.57642 6.63764 9.57642 9.15208C9.57642 11.6671 10.4786 13.8444 12.2579 15.6236C14.0377 17.4025 16.2149 18.3047 18.7291 18.3047Z" fill="#50BD79"/>
<path d="M34.7439 29.2201C34.6926 28.4796 34.5888 27.6719 34.4361 26.819C34.2818 25.9597 34.0832 25.1473 33.8455 24.4049C33.5996 23.6375 33.2659 22.8796 32.8528 22.1534C32.4246 21.3996 31.9213 20.7432 31.3566 20.2031C30.766 19.6381 30.0429 19.1838 29.2068 18.8524C28.3736 18.5228 27.4502 18.3558 26.4625 18.3558C26.0746 18.3558 25.6994 18.5149 24.9749 18.9866C24.529 19.2774 24.0074 19.6137 23.4253 19.9857C22.9275 20.3028 22.2532 20.6 21.4202 20.869C20.6076 21.132 19.7825 21.2654 18.9678 21.2654C18.1537 21.2654 17.3286 21.132 16.5154 20.869C15.6833 20.6003 15.0087 20.3031 14.5118 19.986C13.9352 19.6175 13.4133 19.2812 12.9607 18.9863C12.2368 18.5146 11.8617 18.3555 11.4738 18.3555C10.4857 18.3555 9.56262 18.5228 8.72969 18.8527C7.89415 19.1835 7.17081 19.6378 6.57967 20.2034C6.01491 20.7438 5.51161 21.3999 5.08369 22.1534C4.67114 22.8796 4.33716 23.6372 4.09131 24.4052C3.85387 25.1476 3.65527 25.9597 3.50104 26.819C3.34796 27.6708 3.24446 28.4788 3.19315 29.221C3.1427 29.9466 3.11719 30.7019 3.11719 31.4649C3.11719 33.4485 3.74776 35.0544 4.99121 36.2387C6.2193 37.4073 7.84399 37.9999 9.82036 37.9999H28.1176C30.0934 37.9999 31.7181 37.4073 32.9465 36.2387C34.1902 35.0552 34.8208 33.4488 34.8208 31.4646C34.8205 30.699 34.7947 29.9437 34.7439 29.2201Z" fill="#50BD79"/>
</svg>
