<svg width="47" height="39" viewBox="0 0 47 39" fill="none" xmlns="http://www.w3.org/2000/svg">
<path d="M10.6231 12.0874L7.96101 14.7494C10.5817 6.1623 19.6674 1.3256 28.2544 3.94624C31.527 4.94497 34.401 6.95084 36.4671 9.67815L38.8231 7.8931C32.4243 -0.566124 20.3796 -2.23665 11.9203 4.16207C8.41402 6.81414 5.9239 10.5889 4.86564 14.8559L2.09119 12.0874L0 14.1771L6.35935 20.5365L12.7187 14.1771L10.6231 12.0874Z" fill="#50BD79"/>
<path d="M40.6402 18.4333L34.2809 24.7927L36.3721 26.8839L39.0652 24.1923C36.4676 32.7932 27.3894 37.6598 18.7885 35.0622C15.3675 34.029 12.3819 31.8982 10.2929 28.9987L7.89258 30.7261C10.859 34.8734 15.3599 37.663 20.3939 38.4742C21.4256 38.6417 22.4692 38.7262 23.5144 38.7271C32.3433 38.7229 40.0292 32.6927 42.134 24.1183L44.9025 26.8839L46.9996 24.7927L40.6402 18.4333ZM40.5663 22.6941L40.6417 22.6187L40.7512 22.7296L40.5663 22.6941Z" fill="#50BD79"/>
</svg>
